<svg width="49" height="42" viewBox="0 0 49 42" fill="none" xmlns="http://www.w3.org/2000/svg">
<path d="M7.05541 26.6881C7.50401 26.9629 7.8549 27.3706 8.08586 27.8448C8.3257 28.3323 8.83649 28.6736 9.41389 28.6603C9.41833 28.6603 9.42277 28.6603 9.42721 28.6603C9.84028 28.647 10.2267 28.8597 10.4221 29.2231L10.8707 30.0563C10.964 30.2247 10.9995 30.4197 10.9862 30.6103C10.9862 30.6458 10.9818 30.6857 10.9862 30.7211C10.9862 30.7388 10.9906 30.7566 10.9906 30.7787C11.0528 31.3992 11.6835 31.7936 12.2787 31.6208C12.8872 31.4435 14.2508 31.213 15.2768 32.2324C16.325 33.2783 19.8649 34.271 21.4195 34.6655C21.6016 34.7142 21.7215 34.4793 21.5794 34.3597L10.9995 25.4738C6.59349 21.7776 3.96852 16.3619 3.89302 10.6182C3.89302 10.534 3.89302 10.4453 3.89302 10.3611C3.89302 8.15404 4.25278 6.03561 4.91902 4.05456C4.96343 3.92161 4.7991 3.81967 4.69694 3.91717L2.30737 6.31038C2.13415 6.50095 2.02755 6.74914 2.02755 7.02835C2.02755 7.16573 2.0542 7.29869 2.10306 7.41835C2.14748 7.52471 2.16524 7.63994 2.14748 7.75517C2.12083 7.95904 1.99646 8.13188 1.8188 8.23381C1.50345 8.41995 1.29025 8.76121 1.29025 9.15121C1.29025 9.35508 1.34799 9.55008 1.45015 9.70962C1.72109 10.1439 1.8188 10.6625 1.70332 11.1633L1.68111 11.2696C1.5834 11.6995 1.33911 12.0851 0.988227 12.3555C0.646226 12.6125 0.428589 13.0247 0.428589 13.4856C0.428589 13.88 0.588485 14.239 0.850538 14.496C1.51677 15.1608 1.86322 16.0738 1.85878 17.0133V17.0178C1.85878 17.6648 1.66335 18.2897 1.33467 18.8437C1.21031 19.0564 1.1348 19.3046 1.1348 19.5705C1.1348 20.1866 1.52566 20.7095 2.06753 20.9134C2.46727 21.0596 2.83148 21.2901 3.11574 21.6048L4.83463 23.4927C5.29211 23.9935 5.52307 24.6539 5.51863 25.3275C5.51863 25.332 5.51863 25.332 5.51863 25.3364C5.51863 25.8328 5.85619 26.2449 6.31811 26.3646C6.58017 26.4311 6.82445 26.5463 7.05541 26.6881Z" fill="url(#paint0_linear)"/>
<path d="M21.9258 32.822L21.9213 32.8043C21.8325 32.1174 21.6371 31.4481 21.3439 30.8188L21.264 30.6504C21.2151 30.544 21.1174 30.4731 21.0019 30.4554C20.1358 30.3224 19.4252 29.6843 19.2075 28.8378C19.1587 28.6472 19.1009 28.4921 19.0299 28.3636V28.3591C18.9677 28.2483 18.9011 28.1508 18.83 28.0666C17.8395 26.9276 17.2932 25.4696 17.2932 23.9583C17.2932 23.6348 17.3199 23.3068 17.3687 22.9921C17.3954 22.8237 17.4087 22.6553 17.4176 22.4913C17.4398 21.7025 16.8579 21.0067 16.0673 20.9402C16.0451 20.9402 16.0229 20.9358 16.0007 20.9358C15.9918 20.9358 15.9874 20.9358 15.9785 20.9358C15.3789 20.918 14.8814 20.4615 14.8326 19.8632C14.8059 19.5264 14.8903 19.1852 15.068 18.8971C15.2767 18.5603 15.3967 18.1614 15.3967 17.7359C15.3967 17.182 15.1924 16.6812 14.8592 16.2912C14.1353 15.458 13.7266 14.4032 13.7266 13.3041C13.7266 12.6083 13.9132 11.9125 14.304 11.3363C14.4195 11.1679 14.4861 10.9641 14.4861 10.7425C14.4861 10.5563 14.4373 10.3835 14.3529 10.2328C14.2507 10.0467 14.1841 9.8428 14.1752 9.63007C14.1708 9.46166 14.193 9.29325 14.2507 9.13813C14.2952 9.0229 14.3174 8.89438 14.3174 8.76142C14.3174 8.39801 14.1308 8.07448 13.851 7.88391C13.6378 7.73766 13.469 7.53823 13.3802 7.29447L13.3313 7.16152C13.1759 6.73163 13.2914 6.25299 13.62 5.93389C13.6467 5.9073 13.6778 5.88071 13.7044 5.84969L15.1924 4.28524C15.641 3.84648 16.2583 3.57171 16.9335 3.57171C17.5508 3.57171 18.1149 3.79773 18.5502 4.17001C18.5413 4.14342 18.528 4.12126 18.5191 4.0991C18.0838 3.17284 17.0267 2.70749 16.0363 2.9734L14.6416 3.35011C13.7933 3.58057 12.9138 3.66478 12.0344 3.66034C12.03 3.66034 12.03 3.66034 12.0255 3.66034C11.5192 3.66034 11.0839 3.96614 10.8974 4.4049C10.6797 4.91899 10.3644 5.38434 10.0002 5.8098L9.9513 5.86741C9.56044 6.32389 9.08963 6.7006 8.58773 7.02856C8.32124 7.2014 8.13469 7.49391 8.1036 7.8263C8.08584 8.05232 8.13469 8.26505 8.24129 8.44676C8.57441 9.0229 8.69433 9.70098 8.55664 10.3525L8.54776 10.4056C8.40563 11.0837 7.99256 11.6732 7.42404 12.072C7.05539 12.3335 6.81555 12.759 6.81555 13.242C6.81555 13.6187 6.96212 13.96 7.19752 14.217C7.50399 14.545 7.69498 14.966 7.7616 15.4092L7.77493 15.4934C7.88152 16.2291 7.62835 16.987 7.06872 17.4745C7.06427 17.4789 7.05983 17.4833 7.05539 17.4878C6.76225 17.7537 6.68674 18.1791 6.85996 18.5337C7.38851 19.6106 8.02365 20.6388 8.75651 21.6005L10.0979 23.1827C10.0979 23.1827 10.0979 23.1827 10.1023 23.1871C10.1512 23.2359 10.1956 23.2846 10.2444 23.3378C10.2711 23.3644 10.2977 23.391 10.3244 23.422C10.3599 23.4575 10.3955 23.4929 10.431 23.5284C10.4576 23.555 10.4843 23.5816 10.5109 23.6082C10.5465 23.6436 10.582 23.6791 10.6175 23.7145C10.6442 23.7411 10.6708 23.7677 10.6975 23.7943C10.733 23.8298 10.773 23.8652 10.8085 23.9007C10.8352 23.9273 10.8618 23.9494 10.8885 23.976C10.9284 24.0115 10.964 24.0469 11.004 24.0824C11.0306 24.1045 11.0572 24.1311 11.0795 24.1533C11.1194 24.1932 11.1638 24.2286 11.2038 24.2641C11.226 24.2862 11.2527 24.3084 11.2749 24.3261C11.3237 24.366 11.3682 24.4103 11.417 24.4502C11.4348 24.468 11.4525 24.4812 11.4748 24.499C11.5414 24.5566 11.608 24.6142 11.6791 24.6718L21.6371 33.0347C21.7659 33.1411 21.9569 33.0303 21.9258 32.8663C21.9302 32.8442 21.9302 32.8309 21.9258 32.822Z" fill="url(#paint1_linear)"/>
<path d="M24.4308 0.535706C24.0044 0.535706 23.6358 0.788322 23.4715 1.15617C23.3826 1.3556 23.2316 1.51958 23.054 1.64367L23.0317 1.6614C22.9118 1.74561 22.7741 1.80322 22.632 1.83867C22.3522 1.91402 22.1479 2.17106 22.1479 2.47686C22.1479 2.68959 22.0146 2.88016 21.8192 2.95994C21.4905 3.09289 21.2596 3.41199 21.2596 3.78427C21.2596 3.89063 21.2773 3.98813 21.3129 4.0812C21.3706 4.23632 21.3795 4.40473 21.3617 4.57314C21.3262 4.85678 21.1841 5.11383 20.962 5.2911C20.3357 5.80077 19.936 6.57634 19.936 7.44499C19.936 7.67544 19.9626 7.89704 20.0159 8.10977C20.0381 8.20727 20.0381 8.3092 20.007 8.4067C19.9626 8.54852 19.8649 8.65932 19.7405 8.73466C19.4341 8.91194 19.2298 9.23989 19.2298 9.6166C19.2298 9.74513 19.252 9.86922 19.2964 9.98445C19.4652 10.4276 19.5895 10.8841 19.6695 11.3495C19.7627 11.8857 19.7139 12.4353 19.5229 12.9449L19.4963 13.0114C19.363 13.366 19.1587 13.6851 18.91 13.9687C18.7767 14.1238 18.6879 14.3144 18.6701 14.5227C18.6524 14.6955 18.679 14.8595 18.7367 15.0102C18.8522 15.3027 18.8478 15.6351 18.7012 15.9143C18.2038 16.8583 17.9195 17.9308 17.9195 19.0698C17.9195 19.6282 18.106 20.4038 18.297 21.042C18.5013 21.7289 18.5369 22.4469 18.4258 23.156C18.3859 23.4174 18.3637 23.6878 18.3637 23.9626C18.3637 25.27 18.8433 26.4621 19.6428 27.3751C19.7716 27.5213 19.8782 27.6853 19.9715 27.8537C20.0959 28.0798 20.1803 28.3235 20.2424 28.5717C20.3535 29.006 20.7177 29.3384 21.1663 29.4049C21.304 29.4271 21.4372 29.4581 21.566 29.5068L21.7259 29.5689C22.2767 29.786 22.6675 30.2868 22.7475 30.8763L22.9829 32.649C23.0984 33.3448 23.7069 33.8811 24.4397 33.8811C25.1726 33.8811 25.7811 33.3493 25.8966 32.649L26.132 30.8763C26.2119 30.2868 26.6028 29.786 27.1535 29.5689L27.3134 29.5068C27.4422 29.4581 27.5755 29.4271 27.7132 29.4049C28.1618 29.3384 28.526 29.0016 28.637 28.5717C28.6992 28.3235 28.788 28.0798 28.9079 27.8537C29.0012 27.6809 29.1123 27.5213 29.2366 27.3751C30.0317 26.4621 30.5158 25.27 30.5158 23.9626C30.5158 23.6878 30.4936 23.4219 30.4536 23.156C30.3426 22.4513 30.3781 21.7289 30.5824 21.042C30.769 20.4038 30.96 19.6282 30.96 19.0698C30.96 17.9308 30.6801 16.8583 30.1782 15.9143C30.0317 15.6351 30.0228 15.3071 30.1427 15.0102C30.2004 14.8639 30.2271 14.6955 30.2093 14.5227C30.1871 14.31 30.0983 14.1194 29.9695 13.9687C29.7208 13.6851 29.5164 13.366 29.3832 13.0114L29.3565 12.9449C29.1656 12.4353 29.1123 11.8857 29.21 11.3495C29.2944 10.8841 29.4143 10.4276 29.5831 9.98445C29.6275 9.86922 29.6497 9.74513 29.6497 9.6166C29.6497 9.23989 29.4454 8.91194 29.1389 8.73466C29.0101 8.65932 28.9124 8.54852 28.8724 8.4067C28.8413 8.3092 28.8413 8.20727 28.8635 8.10977C28.9168 7.89704 28.9435 7.67544 28.9435 7.44499C28.9435 6.57634 28.5437 5.80077 27.9175 5.2911C27.6954 5.11383 27.5533 4.85678 27.5177 4.57314C27.5 4.40916 27.5088 4.24075 27.5666 4.0812C27.5977 3.98813 27.6199 3.8862 27.6199 3.78427C27.6199 3.41199 27.3889 3.09289 27.0602 2.95994C26.8604 2.88016 26.7316 2.68959 26.7316 2.47686C26.7316 2.17106 26.5273 1.91845 26.2474 1.83867C26.1053 1.79879 25.9676 1.74561 25.8477 1.6614L25.8255 1.64367C25.6478 1.51958 25.4968 1.3556 25.408 1.15617C25.2259 0.788322 24.8617 0.535706 24.4308 0.535706Z" fill="url(#paint2_linear)"/>
<path d="M41.8106 26.6881C41.362 26.9629 41.0112 27.3706 40.7802 27.8448C40.5404 28.3323 40.0296 28.6736 39.4522 28.6603C39.4477 28.6603 39.4433 28.6603 39.4388 28.6603C39.0258 28.647 38.6394 28.8597 38.4439 29.2231L37.9953 30.0519C37.9021 30.2203 37.8665 30.4153 37.8799 30.6059C37.8799 30.6413 37.8843 30.6812 37.8799 30.7167C37.8799 30.7344 37.8754 30.7521 37.8754 30.7743C37.8132 31.3947 37.1825 31.7892 36.5874 31.6163C35.9789 31.4391 34.6153 31.2086 33.5893 32.2279C32.5411 33.2739 29.0012 34.2666 27.4466 34.661C27.2645 34.7098 27.1446 34.4749 27.2867 34.3552L37.8621 25.4738C42.2681 21.7732 44.8931 16.3619 44.9642 10.6182C44.9642 10.534 44.9642 10.4453 44.9642 10.3611C44.9642 8.15404 44.6044 6.03561 43.9382 4.05456C43.8937 3.92161 44.0581 3.81967 44.1602 3.91717L46.5498 6.31038C46.723 6.50095 46.8296 6.74914 46.8296 7.02835C46.8296 7.16573 46.803 7.29869 46.7541 7.41835C46.7097 7.52471 46.6919 7.63994 46.7097 7.75517C46.7363 7.95904 46.8607 8.13188 47.0384 8.23381C47.3537 8.41995 47.5669 8.7612 47.5669 9.15121C47.5669 9.35507 47.5092 9.55008 47.407 9.70962C47.1361 10.1439 47.0384 10.6625 47.1539 11.1633L47.1761 11.2696C47.2738 11.6995 47.5181 12.0851 47.8689 12.3554C48.2065 12.6169 48.4286 13.0291 48.4286 13.49C48.4286 13.8844 48.2687 14.2434 48.0066 14.5005C47.3404 15.1653 46.994 16.0782 46.9984 17.0178V17.0222C46.9984 17.6693 47.1938 18.2942 47.5225 18.8481C47.6469 19.0609 47.7224 19.309 47.7224 19.575C47.7224 20.191 47.3315 20.7139 46.7896 20.9178C46.3899 21.0641 46.0257 21.2945 45.7414 21.6092L44.0314 23.4927C43.5739 23.9935 43.343 24.6539 43.3474 25.3275C43.3474 25.332 43.3474 25.332 43.3474 25.3364C43.3474 25.8328 43.0099 26.2449 42.5479 26.3646C42.2859 26.4311 42.0416 26.5463 41.8106 26.6881Z" fill="url(#paint3_linear)"/>
<path d="M26.9402 32.822L26.9447 32.8043C27.0335 32.1174 27.2289 31.4482 27.5221 30.8188L27.602 30.6504C27.6509 30.5441 27.7486 30.4731 27.8641 30.4554C28.7302 30.3225 29.4408 29.6843 29.6585 28.8378C29.7073 28.6472 29.7651 28.4921 29.8361 28.3636V28.3591C29.8983 28.2483 29.9649 28.1508 30.036 28.0666C31.0265 26.9277 31.5728 25.4696 31.5728 23.9583C31.5728 23.6348 31.5461 23.3068 31.4973 22.9922C31.4706 22.8237 31.4573 22.6553 31.4484 22.4914C31.4262 21.7025 32.0081 21.0067 32.7987 20.9402C32.8209 20.9402 32.8431 20.9358 32.8653 20.9358C32.8742 20.9358 32.8786 20.9358 32.8875 20.9358C33.4871 20.918 33.9846 20.4616 34.0334 19.8633C34.0601 19.5264 33.9757 19.1852 33.798 18.8971C33.5893 18.5603 33.4693 18.1614 33.4693 17.736C33.4693 17.182 33.6737 16.6812 34.0068 16.2912C34.7307 15.458 35.1394 14.4032 35.1394 13.3041C35.1394 12.6083 34.9528 11.9125 34.562 11.3363C34.4465 11.1679 34.3799 10.9641 34.3799 10.7425C34.3799 10.5563 34.4287 10.3835 34.5131 10.2328C34.6153 10.0467 34.6819 9.8428 34.6908 9.63007C34.6952 9.46166 34.673 9.29325 34.6153 9.13813C34.5708 9.0229 34.5486 8.89438 34.5486 8.76143C34.5486 8.39801 34.7352 8.07448 35.015 7.88391C35.2282 7.73766 35.397 7.53823 35.4858 7.29448L35.5347 7.16152C35.6901 6.73163 35.5746 6.25299 35.246 5.93389C35.2193 5.9073 35.1882 5.88071 35.1616 5.84969L33.6737 4.28524C33.2251 3.84648 32.6077 3.57171 31.9326 3.57171C31.3152 3.57171 30.7511 3.79773 30.3158 4.17001C30.3247 4.14342 30.338 4.12126 30.3469 4.0991C30.7822 3.17284 31.8393 2.70749 32.8298 2.9734L34.2244 3.35011C35.0727 3.58057 35.9522 3.66478 36.8316 3.66034C36.836 3.66034 36.836 3.66034 36.8405 3.66034C37.3468 3.66034 37.7821 3.96614 37.9686 4.4049C38.1863 4.91899 38.5016 5.38434 38.8658 5.8098L38.9147 5.86741C39.3056 6.3239 39.7764 6.70061 40.2783 7.02856C40.5448 7.20141 40.7313 7.49391 40.7624 7.8263C40.7802 8.05233 40.7313 8.26506 40.6247 8.44676C40.2916 9.0229 40.1717 9.70098 40.3094 10.3525L40.3182 10.4056C40.4604 11.0837 40.8734 11.6732 41.442 12.072C41.8106 12.3335 42.0505 12.759 42.0505 13.242C42.0505 13.6188 41.9039 13.96 41.6685 14.2171C41.362 14.545 41.171 14.966 41.1044 15.4092L41.0911 15.4934C40.9845 16.2291 41.2376 16.987 41.7973 17.4745C41.8017 17.4789 41.8062 17.4833 41.8106 17.4878C42.1038 17.7537 42.1793 18.1791 42.006 18.5337C41.4775 19.6106 40.8423 20.6388 40.1095 21.6005L38.7681 23.1827C38.7681 23.1827 38.7681 23.1827 38.7637 23.1872C38.7148 23.2359 38.6704 23.2847 38.6216 23.3378C38.5949 23.3644 38.5683 23.391 38.5416 23.422C38.5061 23.4575 38.4705 23.493 38.435 23.5284C38.4084 23.555 38.3817 23.5816 38.3551 23.6082C38.3195 23.6436 38.284 23.6791 38.2485 23.7145C38.2218 23.7411 38.1952 23.7677 38.1685 23.7943C38.133 23.8298 38.093 23.8652 38.0575 23.9007C38.0308 23.9273 38.0042 23.9494 37.9775 23.976C37.9376 24.0115 37.902 24.0469 37.8621 24.0824C37.8354 24.1046 37.8088 24.1311 37.7865 24.1533C37.7466 24.1932 37.7022 24.2286 37.6622 24.2641C37.64 24.2863 37.6133 24.3084 37.5911 24.3261C37.5423 24.366 37.4978 24.4104 37.449 24.4502C37.4312 24.468 37.4135 24.4813 37.3912 24.499C37.3246 24.5566 37.258 24.6142 37.1869 24.6718L27.22 33.0259C27.0912 33.1323 26.9003 33.0215 26.9313 32.8575C26.9358 32.8442 26.9358 32.8309 26.9402 32.822Z" fill="url(#paint4_linear)"/>
<path fill-rule="evenodd" clip-rule="evenodd" d="M19.2168 36.309C19.5636 36.0991 20.0204 36.2513 20.1659 36.6359C20.2844 36.9493 20.1466 37.3118 19.8281 37.4551C18.6173 37.9997 16.6639 38.6997 14.532 39.1156C12.4084 39.5298 10.0557 39.6726 8.07568 39.053C7.8533 38.9834 7.72582 38.7504 7.78717 38.5256C7.84852 38.3008 8.07672 38.1648 8.30362 38.2179C12.9915 39.3137 17.3663 37.4287 19.2168 36.309Z" fill="#FDB314"/>
<path fill-rule="evenodd" clip-rule="evenodd" d="M29.5662 36.309C29.2194 36.0991 28.7625 36.2513 28.6171 36.6359C28.4985 36.9493 28.6363 37.3118 28.9549 37.4551C30.1656 37.9997 32.119 38.6997 34.251 39.1156C36.3746 39.5298 38.7272 39.6726 40.7073 39.053C40.9296 38.9834 41.0571 38.7504 40.9958 38.5256C40.9344 38.3008 40.7062 38.1648 40.4793 38.2179C35.7914 39.3137 31.4167 37.4287 29.5662 36.309Z" fill="#FDB314"/>
<path fill-rule="evenodd" clip-rule="evenodd" d="M7.3994 35.2281C7.57637 35.389 7.58934 35.663 7.42837 35.8399C6.99975 36.3112 6.46499 37.134 6.25833 38.0443C6.05624 38.9345 6.16796 39.8874 6.98801 40.7246C7.1554 40.8955 7.15257 41.1697 6.98168 41.3371C6.81079 41.5045 6.53655 41.5017 6.36916 41.3308C5.29996 40.2393 5.16121 38.964 5.41355 37.8525C5.66131 36.7611 6.28586 35.8086 6.78754 35.2571C6.9485 35.0801 7.22244 35.0671 7.3994 35.2281Z" fill="#FDB314"/>
<path fill-rule="evenodd" clip-rule="evenodd" d="M41.404 35.2281C41.227 35.389 41.2141 35.663 41.375 35.8399C41.8037 36.3112 42.3384 37.134 42.5451 38.0443C42.7472 38.9345 42.6354 39.8874 41.8154 40.7246C41.648 40.8955 41.6508 41.1697 41.8217 41.3371C41.9926 41.5045 42.2669 41.5017 42.4342 41.3308C43.5034 40.2393 43.6422 38.964 43.3899 37.8525C43.1421 36.7611 42.5175 35.8086 42.0159 35.2571C41.8549 35.0801 41.581 35.0671 41.404 35.2281Z" fill="#FDB314"/>
<defs>
<linearGradient id="paint0_linear" x1="11.0353" y1="3.87848" x2="11.0353" y2="34.672" gradientUnits="userSpaceOnUse">
<stop stop-color="#CF1A21"/>
<stop offset="1" stop-color="#FDB314"/>
</linearGradient>
<linearGradient id="paint1_linear" x1="14.3486" y1="2.89917" x2="14.3486" y2="33.0766" gradientUnits="userSpaceOnUse">
<stop stop-color="#CF1A21"/>
<stop offset="1" stop-color="#FDB314"/>
</linearGradient>
<linearGradient id="paint2_linear" x1="24.4397" y1="0.535706" x2="24.4397" y2="33.8811" gradientUnits="userSpaceOnUse">
<stop stop-color="#CF1A21"/>
<stop offset="1" stop-color="#FDB314"/>
</linearGradient>
<linearGradient id="paint3_linear" x1="37.8264" y1="3.87848" x2="37.8264" y2="34.6676" gradientUnits="userSpaceOnUse">
<stop stop-color="#CF1A21"/>
<stop offset="1" stop-color="#FDB314"/>
</linearGradient>
<linearGradient id="paint4_linear" x1="34.5129" y1="2.89917" x2="34.5129" y2="33.0678" gradientUnits="userSpaceOnUse">
<stop stop-color="#CF1A21"/>
<stop offset="1" stop-color="#FDB314"/>
</linearGradient>
</defs>
</svg>
